<!--?xml version="1.0" encoding="utf-8"?-->
<!-- Generator: Adobe Illustrator 18.1.1, SVG Export Plug-In . SVG Version: 6.00 Build 0)  -->

<svg version="1.1" id="_x32_" xmlns="http://www.w3.org/2000/svg" xmlns:xlink="http://www.w3.org/1999/xlink" x="0px" y="0px" viewBox="0 0 512 512" style="width: 256px; height: 256px; opacity: 1;" xml:space="preserve">
<style type="text/css">
	.st0{fill:#4B4B4B;}
</style>
<g>
	<polygon class="st0" points="244.848,49.742 251.894,209.888 260.013,209.888 267.05,49.742 	" style="fill: rgb(75, 75, 75);"></polygon>
	<polygon class="st0" points="244.848,463.321 267.05,463.321 260.013,303.026 251.894,303.026 	" style="fill: rgb(75, 75, 75);"></polygon>
	<path class="st0" d="M255.944,23.611c6.542,0,11.834-5.292,11.834-11.778C267.778,5.292,262.486,0,255.944,0
		c-6.486,0-11.796,5.292-11.796,11.834C244.148,18.32,249.458,23.611,255.944,23.611z" style="fill: rgb(75, 75, 75);"></path>
	<path class="st0" d="M255.944,488.379c-6.486,0-11.796,5.301-11.796,11.805c0,6.515,5.31,11.816,11.796,11.816
		c6.542,0,11.834-5.301,11.834-11.816C267.778,493.68,262.486,488.379,255.944,488.379z" style="fill: rgb(75, 75, 75);"></path>
	<polygon class="st0" points="217.989,229.467 83.302,143.478 72.215,162.703 213.957,236.495 	" style="fill: rgb(75, 75, 75);"></polygon>
	<polygon class="st0" points="294.581,283.064 428.12,368.998 439.216,349.791 298.649,276.046 	" style="fill: rgb(75, 75, 75);"></polygon>
	<path class="st0" d="M39.01,144.364c1.792,1.018,3.836,1.568,5.889,1.568c4.218,0,8.138-2.268,10.248-5.916
		c1.586-2.726,1.997-5.908,1.185-8.951c-0.821-3.042-2.781-5.59-5.506-7.167c-1.81-1.036-3.835-1.567-5.889-1.567
		c-4.218,0-8.156,2.24-10.266,5.879C31.442,133.856,33.392,141.07,39.01,144.364z" style="fill: rgb(75, 75, 75);"></path>
	<path class="st0" d="M471.488,367.588c-1.792-1.026-3.836-1.567-5.908-1.567c-4.19,0-8.119,2.249-10.228,5.889
		c-3.247,5.674-1.316,12.907,4.32,16.154c1.774,1.026,3.818,1.586,5.89,1.586c4.218,0,8.147-2.268,10.266-5.907
		C479.056,378.088,477.124,370.864,471.488,367.588z" style="fill: rgb(75, 75, 75);"></path>
	<polygon class="st0" points="217.989,282.662 213.957,275.654 72.215,349.222 83.302,368.428 	" style="fill: rgb(75, 75, 75);"></polygon>
	<polygon class="st0" points="298.649,236.112 440.718,162.115 429.622,142.899 294.581,229.085 	" style="fill: rgb(75, 75, 75);"></polygon>
	<path class="st0" d="M44.899,365.974c-2.053,0-4.097,0.55-5.889,1.586c-5.637,3.239-7.568,10.5-4.34,16.136
		c2.109,3.64,6.038,5.916,10.266,5.916c2.044,0,4.079-0.55,5.889-1.596c5.637-3.266,7.569-10.499,4.322-16.135
		C53.037,368.242,49.117,365.974,44.899,365.974z" style="fill: rgb(75, 75, 75);"></path>
	<path class="st0" d="M467.082,145.886c2.081,0,4.106-0.541,5.908-1.586c5.628-3.257,7.569-10.481,4.322-16.127
		c-2.101-3.63-6.029-5.908-10.238-5.908c-2.081,0-4.106,0.551-5.898,1.578c-2.716,1.586-4.685,4.134-5.487,7.186
		c-0.822,3.043-0.401,6.244,1.166,8.969C458.963,143.637,462.874,145.886,467.082,145.886z" style="fill: rgb(75, 75, 75);"></path>
	<polygon class="st0" points="166.417,115.48 229.664,216.934 235.198,213.742 179.072,108.182 177.56,107.753 166.8,113.978 	" style="fill: rgb(75, 75, 75);"></polygon>
	<path class="st0" d="M155.918,97.02l12.431-7.205l-8.754-15.118l-1.474-0.411l-10.565,6.094c-0.541,0.327-0.709,0.962-0.411,1.466
		L155.918,97.02z" style="fill: rgb(75, 75, 75);"></path>
	<polygon class="st0" points="345.489,396.426 282.262,295.206 276.708,298.407 333.506,404.247 333.805,404.274 334.346,404.153 
		345.116,397.947 	" style="fill: rgb(75, 75, 75);"></polygon>
	<path class="st0" d="M356.025,414.904l-12.449,7.186l8.754,15.118c0.243,0.419,0.634,0.579,0.934,0.579l0.541-0.16l10.546-6.093
		c0.505-0.308,0.7-0.99,0.411-1.474L356.025,414.904z" style="fill: rgb(75, 75, 75);"></path>
	<path class="st0" d="M88.761,262.952c0.206,0.206,0.458,0.299,0.775,0.299l119.382-3.985v-6.402l-119.382-4.21l-1.101,1.073
		L88.761,262.952z" style="fill: rgb(75, 75, 75);"></path>
	<path class="st0" d="M49.714,249.841v12.206c0,0.607,0.476,1.083,1.092,1.083h17.47v-14.362H50.788
		C50.19,248.768,49.714,249.244,49.714,249.841z" style="fill: rgb(75, 75, 75);"></path>
	<polygon class="st0" points="423.463,249.728 422.37,248.655 302.989,252.864 302.989,259.266 422.352,263.252 423.463,262.178 	
		" style="fill: rgb(75, 75, 75);"></polygon>
	<path class="st0" d="M462.211,262.047v-12.206c0-0.495-0.589-1.055-1.083-1.055l-17.507-0.018v14.362h17.507
		C461.716,263.13,462.211,262.654,462.211,262.047z" style="fill: rgb(75, 75, 75);"></path>
	<path class="st0" d="M229.664,295.206l-63.247,101.22l0.383,1.521l10.76,6.188c0.178,0.112,0.354,0.139,0.542,0.139l0.97-0.55
		l56.144-105.317L229.664,295.206z" style="fill: rgb(75, 75, 75);"></path>
	<path class="st0" d="M147.146,430.061l0.429,1.474l10.546,6.093c0.158,0.094,0.326,0.16,0.504,0.16l0.971-0.579l8.754-15.118
		l-12.431-7.186L147.146,430.061z" style="fill: rgb(75, 75, 75);"></path>
	<polygon class="st0" points="282.262,216.934 345.489,115.499 345.116,113.978 334.346,107.753 332.844,108.182 276.708,213.742 	
		" style="fill: rgb(75, 75, 75);"></polygon>
	<polygon class="st0" points="364.761,81.865 364.369,80.38 353.804,74.286 352.32,74.697 343.576,89.816 356.025,97.02 	" style="fill: rgb(75, 75, 75);"></polygon>
	<path class="st0" d="M271.333,300.992l-6.187,1.661l38.86,154.482c0.065,0.028,0.14,0.046,0.233,0.046l10.835-3.508
		L271.333,300.992z" style="fill: rgb(75, 75, 75);"></path>
	<path class="st0" d="M308.626,474.651l3.77,14.12c0.066,0.252,0.317,0.401,0.522,0.401l10.639-3.406l-3.78-14.111L308.626,474.651z
		" style="fill: rgb(75, 75, 75);"></path>
	<polygon class="st0" points="240.62,211.157 246.826,209.514 207.602,54.764 196.944,58.244 	" style="fill: rgb(75, 75, 75);"></polygon>
	<polygon class="st0" points="203.309,37.292 198.922,22.771 188.424,26.159 192.231,40.27 	" style="fill: rgb(75, 75, 75);"></polygon>
	<path class="st0" d="M287.189,291.818L397.76,406.02c0.084,0.094,0.206,0.14,0.346,0.14l0.401-0.14l7.522-8.38L291.734,287.292
		L287.189,291.818z" style="fill: rgb(75, 75, 75);"></path>
	<path class="st0" d="M410.901,419.038l10.378,10.341c0.112,0.121,0.251,0.139,0.345,0.139l0.364-0.158l7.391-8.166l-10.284-10.331
		L410.901,419.038z" style="fill: rgb(75, 75, 75);"></path>
	<polygon class="st0" points="224.764,220.312 113.492,105.887 105.98,114.249 220.219,224.838 	" style="fill: rgb(75, 75, 75);"></polygon>
	<polygon class="st0" points="101.034,92.933 90.002,82.546 82.584,90.722 92.914,101.042 	" style="fill: rgb(75, 75, 75);"></polygon>
	<polygon class="st0" points="300.871,271.426 453.942,315.047 454.437,314.655 456.742,303.652 302.532,265.22 	" style="fill: rgb(75, 75, 75);"></polygon>
	<polygon class="st0" points="471.711,319.704 485.925,323.52 486.448,323.128 488.78,312.34 474.688,308.561 	" style="fill: rgb(75, 75, 75);"></polygon>
	<polygon class="st0" points="209.394,246.91 211.054,240.723 57.554,197.252 55.23,208.227 	" style="fill: rgb(75, 75, 75);"></polygon>
	<polygon class="st0" points="40.279,192.222 25.516,188.778 23.21,199.548 37.312,203.336 	" style="fill: rgb(75, 75, 75);"></polygon>
	<polygon class="st0" points="302.55,246.9 457.218,207.574 453.718,196.86 300.889,240.723 	" style="fill: rgb(75, 75, 75);"></polygon>
	<polygon class="st0" points="474.651,203.262 489.173,198.876 485.785,188.386 471.711,192.156 	" style="fill: rgb(75, 75, 75);"></polygon>
	<path class="st0" d="M209.421,265.23L54.8,304.333l3.024,10.639c0.076,0.056,0.168,0.075,0.252,0.075l152.997-43.621
		L209.421,265.23z" style="fill: rgb(75, 75, 75);"></path>
	<path class="st0" d="M37.349,308.635l-14.522,4.377l2.706,10.126c0.084,0.214,0.29,0.382,0.542,0.382l14.231-3.789L37.349,308.635z
		" style="fill: rgb(75, 75, 75);"></path>
	<polygon class="st0" points="291.716,224.838 406.057,113.427 397.696,105.905 287.208,220.312 	" style="fill: rgb(75, 75, 75);"></polygon>
	<polygon class="st0" points="429.416,89.946 421.242,82.546 410.901,92.858 419.029,100.978 	" style="fill: rgb(75, 75, 75);"></polygon>
	<path class="st0" d="M220.238,287.292L105.924,398.451l7.625,7.569c0.121,0.131,0.298,0.131,0.345,0.131l0.384-0.196
		l110.487-114.137L220.238,287.292z" style="fill: rgb(75, 75, 75);"></path>
	<path class="st0" d="M82.602,421.979l7.4,7.382c0.103,0.121,0.262,0.158,0.364,0.158l0.411-0.186l10.303-10.294l-8.092-8.147
		L82.602,421.979z" style="fill: rgb(75, 75, 75);"></path>
	<polygon class="st0" points="271.324,211.157 314.674,57.498 303.689,55.155 265.146,209.496 	" style="fill: rgb(75, 75, 75);"></polygon>
	<polygon class="st0" points="323.184,25.478 312.396,23.135 308.598,37.246 319.694,40.241 	" style="fill: rgb(75, 75, 75);"></polygon>
	<polygon class="st0" points="240.648,300.973 197.28,454.381 207.76,457.162 208.264,456.723 246.826,302.653 	" style="fill: rgb(75, 75, 75);"></polygon>
	<polygon class="st0" points="188.834,486.429 199.072,489.154 199.604,488.724 203.393,474.632 192.306,471.655 	" style="fill: rgb(75, 75, 75);"></polygon>
</g>
</svg>
